{"title":"Eu Cand Vreau Sa Fluier Fluier 2010 DVDRip Mkv FEEL-FREE","uid":5569029,"size":893964720,"categoryP":"video","categoryS":"movies","magnet":"?xt=urn:btih:842354ee49c97214928028c36b0342e42044b1f8&amp;dn=Eu+Cand+Vreau+Sa+Fluier+Fluier+2010+DVDRip+Mkv+FEEL-FREE&amp;tr=udp%3A%2F%2Ftracker.openbittorrent.com%3A80&amp;tr=udp%3A%2F%2Fopen.demonii.com%3A1337&amp;tr=udp%3A%2F%2Ftracker.coppersurfer.tk%3A6969&amp;tr=udp%3A%2F%2Fexodus.desync.com%3A6969","seeders":7,"leechers":1,"uploader":"extremezone","files":-1,"time":1274212529,"description":"Language: Romanian\nSubtitles:English/HardSub\n..............................................\nGeneral\nComplete name : Eu.Cand.Vreau.Sa.Fluier.Fluier.2010.DVDRip.Mkv.FEEL-FREE.mkv\nFormat : Matroska\nFile size : 852 MiB\nDuration : 1h 30mn\nOverall bit rate : 1 323 Kbps\n................................................\nVideo\nID : 1\nFormat : MPEG-4 Visual\nFormat profile : Simple@L1\nFormat settings, BVOP : No\nFormat settings, QPel : No\nFormat settings, GMC : No warppoints\nFormat settings, Matrix : Default (H.263)\nCodec ID : FMP4\nDuration : 1h 30mn\nBit rate : 1 168 Kbps\nWidth : 720 pixels\nHeight : 576 pixels\nDisplay aspect ratio : 3.202\nOriginal display aspect ratio : 4:3\nFrame rate : 25.000 fps\nStandard : PAL\nResolution : 24 bits\nColorimetry : 4:2:0\nScan type : Progressive\nBits/(Pixel*Frame) : 0.113\nStream size : 752 MiB (88%)\nWriting library : Lavc52.20.0\n...............................................\nAudio\nID : 2\nFormat : MPEG Audio\nFormat version : Version 1\nFormat profile : Layer 3\nFormat settings, Mode : Joint stereo / MS Stereo\nCodec ID : A_MPEG/L3\nCodec ID/Hint : MP3\nDuration : 1h 30mn\nBit rate mode : Constant\nBit rate : 128 Kbps\nChannel(s) : 2 channels\nSampling rate : 48.0 KHz\nResolution : 16 bits\nStream size : 82.4 MiB (10%)\n &lt;a href=&quot;\nhttp://www.imdb.com/title/tt1590024/&quot; rel=&quot;nofollow&quot; target=&quot;_NEW&quot;&gt;\nhttp://www.imdb.com/title/tt1590024/&lt;/a&gt;\n\nScreenCaps:\n &lt;a href=&quot;\nhttp://www.postimg.com/image/15000/14701.jpg&quot; rel=&quot;nofollow&quot; target=&quot;_NEW&quot;&gt;\nhttp://www.postimg.com/image/15000/14701.jpg&lt;/a&gt;\n\nEu Cand Vreau Sa Fluier Fluier 2010 DVDRip Mkv FEEL-FREE Torrent Free Download\n &lt;a href=&quot;\nhttp://thepiratebay.se/user/extremezone/0/7&quot; rel=&quot;nofollow&quot; target=&quot;_NEW&quot;&gt;\nhttp://thepiratebay.se/user/extremezone/0/7&lt;/a&gt;","torrent":{"xt":"urn:btih:842354ee49c97214928028c36b0342e42044b1f8","amp;dn":"Eu+Cand+Vreau+Sa+Fluier+Fluier+2010+DVDRip+Mkv+FEEL-FREE","amp;tr":["udp%3A%2F%2Ftracker.openbittorrent.com%3A80","udp%3A%2F%2Fopen.demonii.com%3A1337","udp%3A%2F%2Ftracker.coppersurfer.tk%3A6969","udp%3A%2F%2Fexodus.desync.com%3A6969"],"infoHash":"842354ee49c97214928028c36b0342e42044b1f8","infoHashBuffer":{"type":"Buffer","data":[132,35,84,238,73,201,114,20,146,128,40,195,107,3,66,228,32,68,177,248]},"announce":[],"urlList":[]}}